<?xml version="1.0" encoding="utf-8"?>
<svg xmlns="http://www.w3.org/2000/svg" style="margin: auto; background: none; display: block; shape-rendering: auto;" width="250" height="70" preserveAspectRatio="xMidYMid">
<style type="text/css">
  text {
    text-anchor: middle; font-size: 45px; opacity: 0;
  }
</style>
<g style="transform-origin: 40px -240px; transform: scale(0.75);">
<g transform="translate(140,125)">
  <g transform="translate(0,0)"><g class="path" style="transform: scale(0.91); transform-origin: -53.44px 4.20288px; animation: 2.94118s linear -1.55294s infinite normal forwards running breath-1fb5be79-15b3-4e37-aa03-de14a6601856;"><path d="M46.48-44.24L46.48-44.24L46.48-44.24Q40.16-46.96 32.76-46.96L32.76-46.96L32.76-46.96Q25.36-46.96 20.76-42.24L20.76-42.24L20.76-42.24Q16.16-37.52 16.16-29.92L16.16-29.92L14.40-29.92L14.40-29.92Q14.40-38.24 19.52-43.48L19.52-43.48L19.52-43.48Q24.64-48.72 32.64-48.72L32.64-48.72L32.64-48.72Q39.04-48.72 46.48-46.24L46.48-46.24L46.48-46.24Q55.04-43.12 65.04-43.12L65.04-43.12L65.04-41.44L65.04-41.44Q59.04-41.44 55.44-42L55.44-42L55.44-42Q55.36-41.68 54.88-39.36L54.88-39.36L54.88-39.36Q51.92-26.24 50.08-18.48L50.08-18.48L71.52-18.48L79.68-53.20L81.36-53.20L70.16-5.12L70.16-5.12Q69.44-2.16 69.44-1.12L69.44-1.12L69.44-1.12Q69.44 2.24 72.56 2.24L72.56 2.24L72.56 2.24Q74.80 2.24 76.48-0.08L76.48-0.08L77.60 0.88L77.60 0.88Q77.04 1.92 75.60 2.84L75.60 2.84L75.60 2.84Q74.16 3.76 72.12 3.76L72.12 3.76L72.12 3.76Q70.08 3.76 68.92 2.40L68.92 2.40L68.92 2.40Q67.76 1.04 67.76-0.88L67.76-0.88L68.72-6.16L71.20-17.04L49.68-17.04L49.68-17.04Q48.80-13.68 47.92-9.76L47.92-9.76L47.92-9.76Q47.04-5.84 45.80-2.08L45.80-2.08L45.80-2.08Q44.56 1.68 42.40 5.68L42.40 5.68L42.40 5.68Q40.24 9.68 37.56 12.20L37.56 12.20L37.56 12.20Q34.88 14.72 30.84 16.36L30.84 16.36L30.84 16.36Q26.80 18 22.12 18L22.12 18L22.12 18Q17.44 18 13.28 16.24L13.28 16.24L13.28 16.24Q9.12 14.48 6.32 11.36L6.32 11.36L6.32 11.36Q1.52 5.84 1.52-2L1.52-2L1.52-2Q1.52-3.28 1.60-4.56L1.60-4.56L3.36-4.32L3.36-4.32Q3.28-3.20 3.28-2.08L3.28-2.08L3.28-2.08Q3.28 5.36 7.80 10.36L7.80 10.36L7.80 10.36Q12.32 15.36 20 15.36L20 15.36L20 15.36Q27.68 15.36 30.80 11.28L30.80 11.28L30.80 11.28Q33.92 7.20 36.76-4.40L36.76-4.40L36.76-4.40Q39.60-16 46.48-44.24" fill="#46221e" stroke="none" stroke-width="none" transform="translate(-94.8800048828125,21.802879211425772)" style="fill: rgb(70, 34, 30);"></path></g><g class="path" style="transform: scale(0.91); transform-origin: 3.04px 6.60288px; animation: 2.94118s linear -1.16471s infinite normal forwards running breath-1fb5be79-15b3-4e37-aa03-de14a6601856;"><path d="M101.44-31.12L101.44-31.12L101.44-31.12Q111.60-31.12 111.60-23.04L111.60-23.04L111.60-23.04Q111.60-18 106.84-15.40L106.84-15.40L106.84-15.40Q102.08-12.80 93.28-12.72L93.28-12.72L93.28-12.72Q93.12-9.84 93.12-8.16L93.12-8.16L93.12-8.16Q93.12-4.56 94.76-2.84L94.76-2.84L94.76-2.84Q96.40-1.12 98.88-1.12L98.88-1.12L98.88-1.12Q101.36-1.12 103.40-2.08L103.40-2.08L103.40-2.08Q105.44-3.04 106.64-4.36L106.64-4.36L106.64-4.36Q107.84-5.68 108.72-7.12L108.72-7.12L108.72-7.12Q110.32-9.76 110.32-10.48L110.32-10.48L111.76-9.84L111.76-9.84Q111.52-8.56 110.32-6.44L110.32-6.44L110.32-6.44Q109.12-4.32 107.68-2.96L107.68-2.96L107.68-2.96Q106.24-1.60 103.44-0.44L103.44-0.44L103.44-0.44Q100.64 0.72 97.20 0.72L97.20 0.72L97.20 0.72Q90.72 0.72 87.40-2.36L87.40-2.36L87.40-2.36Q84.08-5.44 84.08-10.80L84.08-10.80L84.08-10.80Q84.08-20.32 88.80-25.72L88.80-25.72L88.80-25.72Q93.52-31.12 101.44-31.12zM109.60-23.04L109.60-23.04Q109.60-25.68 108.04-27.40L108.04-27.40L108.04-27.40Q106.48-29.12 103.40-29.12L103.40-29.12L103.40-29.12Q100.32-29.12 97.40-25.44L97.40-25.44L97.40-25.44Q94.48-21.76 93.52-14.56L93.52-14.56L93.52-14.56Q109.60-14.64 109.60-23.04L109.60-23.04" fill="#46221e" stroke="none" stroke-width="none" transform="translate(-94.8800048828125,21.802879211425772)" style="fill: rgb(70, 34, 30);"></path></g><g class="path" style="transform: scale(0.91); transform-origin: 32.6px -3.75712px; animation: 2.94118s linear -0.776471s infinite normal forwards running breath-1fb5be79-15b3-4e37-aa03-de14a6601856;"><path d="M130.56-2.88L130.56-2.88L130.56-2.88Q129.52-1.52 127.72-0.40L127.72-0.40L127.72-0.40Q125.92 0.72 123.04 0.72L123.04 0.72L123.04 0.72Q120.16 0.72 118.16-1.12L118.16-1.12L118.16-1.12Q116.16-2.96 116.16-6.32L116.16-6.32L116.16-6.32Q116.16-6.96 116.32-8.40L116.32-8.40L121.52-37.20L121.52-37.20Q122.96-45.12 125.48-48.48L125.48-48.48L125.48-48.48Q128-51.84 132.16-51.84L132.16-51.84L132.16-51.84Q135.04-51.84 136.92-49.68L136.92-49.68L136.92-49.68Q138.80-47.52 138.80-43.12L138.80-43.12L138.80-43.12Q138.80-38.72 135.40-30.56L135.40-30.56L135.40-30.56Q132-22.40 132-18.64L132-18.64L130.56-18.64L130.56-18.64Q130.56-22.88 133.92-30.76L133.92-30.76L133.92-30.76Q137.28-38.64 137.28-43.36L137.28-43.36L137.28-43.36Q137.28-46.24 135.96-48.32L135.96-48.32L135.96-48.32Q134.64-50.40 132.72-50.40L132.72-50.40L132.72-50.40Q132.64-48.32 129.96-31.72L129.96-31.72L129.96-31.72Q127.28-15.12 124.64-0.88L124.64-0.88L124.64-0.88Q126.88-0.88 128.80-3.20L128.80-3.20L128.80-3.20Q130.72-5.52 131.52-7.84L131.52-7.84L132.40-10.24L133.84-9.60L133.84-9.60Q133.60-8.48 132.60-6.36L132.60-6.36L132.60-6.36Q131.60-4.24 130.56-2.88" fill="#46221e" stroke="none" stroke-width="none" transform="translate(-94.8800048828125,21.802879211425772)" style="fill: rgb(70, 34, 30);"></path></g><g class="path" style="transform: scale(0.91); transform-origin: 54.84px -3.75712px; animation: 2.94118s linear -0.388235s infinite normal forwards running breath-1fb5be79-15b3-4e37-aa03-de14a6601856;"><path d="M152.80-2.88L152.80-2.88L152.80-2.88Q151.76-1.52 149.96-0.40L149.96-0.40L149.96-0.40Q148.16 0.72 145.28 0.72L145.28 0.72L145.28 0.72Q142.40 0.72 140.40-1.12L140.40-1.12L140.40-1.12Q138.40-2.96 138.40-6.32L138.40-6.32L138.40-6.32Q138.40-6.96 138.56-8.40L138.56-8.40L143.76-37.20L143.76-37.20Q145.20-45.12 147.72-48.48L147.72-48.48L147.72-48.48Q150.24-51.84 154.40-51.84L154.40-51.84L154.40-51.84Q157.28-51.84 159.16-49.68L159.16-49.68L159.16-49.68Q161.04-47.52 161.04-43.12L161.04-43.12L161.04-43.12Q161.04-38.72 157.64-30.56L157.64-30.56L157.64-30.56Q154.24-22.40 154.24-18.64L154.24-18.64L152.80-18.64L152.80-18.64Q152.80-22.88 156.16-30.76L156.16-30.76L156.16-30.76Q159.52-38.64 159.52-43.36L159.52-43.36L159.52-43.36Q159.52-46.24 158.20-48.32L158.20-48.32L158.20-48.32Q156.88-50.40 154.96-50.40L154.96-50.40L154.96-50.40Q154.88-48.32 152.20-31.72L152.20-31.72L152.20-31.72Q149.52-15.12 146.88-0.88L146.88-0.88L146.88-0.88Q149.12-0.88 151.04-3.20L151.04-3.20L151.04-3.20Q152.96-5.52 153.76-7.84L153.76-7.84L154.64-10.24L156.08-9.60L156.08-9.60Q155.84-8.48 154.84-6.36L154.84-6.36L154.84-6.36Q153.84-4.24 152.80-2.88" fill="#46221e" stroke="none" stroke-width="none" transform="translate(-94.8800048828125,21.802879211425772)" style="fill: rgb(70, 34, 30);"></path></g><g class="path" style="transform: scale(0.91); transform-origin: 81.24px 6.28288px; animation: 2.94118s linear 0s infinite normal forwards running breath-1fb5be79-15b3-4e37-aa03-de14a6601856;"><path d="M172.08 0.72L172.08 0.72L172.08 0.72Q167.28 0.72 164.12-2.60L164.12-2.60L164.12-2.60Q160.96-5.92 160.96-10.80L160.96-10.80L160.96-10.80Q160.96-15.68 163.04-19.76L163.04-19.76L163.04-19.76Q165.12-23.84 168.16-26.36L168.16-26.36L168.16-26.36Q171.20-28.88 174.40-30.32L174.40-30.32L174.40-30.32Q177.60-31.76 180.08-31.76L180.08-31.76L180.08-30.08L180.08-30.08Q176.08-30.08 173.04-24.08L173.04-24.08L173.04-24.08Q170-18.08 170-10.64L170-10.64L170-10.64Q170-2.24 176.40-2.24L176.40-2.24L176.40-2.24Q180.80-2.24 185.28-7.20L185.28-7.20L185.28-7.20Q189.76-12.16 189.76-18.16L189.76-18.16L189.76-18.16Q189.76-21.36 188.32-23.24L188.32-23.24L188.32-23.24Q186.88-25.12 184.08-25.12L184.08-25.12L184.08-25.12Q181.28-25.12 179.84-23.28L179.84-23.28L179.84-23.28Q178.88-22.32 178.36-20.76L178.36-20.76L178.36-20.76Q177.84-19.20 177.76-18.08L177.76-18.08L177.76-17.04L176.16-17.04L176.16-17.04Q176.16-21.68 178.48-24.16L178.48-24.16L178.48-24.16Q180.80-26.64 184.20-26.64L184.20-26.64L184.20-26.64Q187.60-26.64 189.44-24.36L189.44-24.36L189.44-24.36Q191.28-22.08 191.28-18.16L191.28-18.16L191.28-18.16Q191.28-11.76 185.76-5.52L185.76-5.52L185.76-5.52Q180.24 0.72 172.08 0.72" fill="#46221e" stroke="none" stroke-width="none" transform="translate(-94.8800048828125,21.802879211425772)" style="fill: rgb(70, 34, 30);"></path></g></g>
</g>
</g>
<style id="breath-1fb5be79-15b3-4e37-aa03-de14a6601856" data-anikit="">@keyframes breath-1fb5be79-15b3-4e37-aa03-de14a6601856
{
  0% {
    animation-timing-function: cubic-bezier(0.9647,0.2413,-0.0705,0.7911);
    transform: scale(0.9099999999999999);
  }
  51% {
    animation-timing-function: cubic-bezier(0.9226,0.2631,-0.0308,0.7628);
    transform: scale(1.02994);
  }
  100% {
    transform: scale(0.9099999999999999);
  }
}</style></svg>