<?xml version="1.0" encoding="utf-8"?>
<svg xmlns="http://www.w3.org/2000/svg" style="margin: auto; background: none; display: block; shape-rendering: auto;" width="239" height="59" preserveAspectRatio="xMidYMid" >
<style type="text/css">
  text {
    text-anchor: middle; font-size: 54px; opacity: 0;
  }
</style>
<g style="transform-origin:119.5px 29.5px;transform:scale(1)">
<g transform="translate(119.5,29.5)">
  <g transform="translate(0,0)"><g class="path" style="transform: matrix(1, 0, 0, 1, 0, 14.925); opacity: 0.05; transform-origin: -79.43px 0.894463px; animation: 1s linear 0s 1 normal forwards running float-btt-in-4a1b557c-82a1-41e6-8fa0-36ba02afca8a;"><path d="M31.37-29.86L31.37-29.86L31.37-29.86Q27.11-31.70 22.11-31.70L22.11-31.70L22.11-31.70Q17.12-31.70 14.01-28.51L14.01-28.51L14.01-28.51Q10.91-25.33 10.91-20.20L10.91-20.20L9.72-20.20L9.72-20.20Q9.72-25.81 13.18-29.35L13.18-29.35L13.18-29.35Q16.63-32.89 22.03-32.89L22.03-32.89L22.03-32.89Q26.35-32.89 31.37-31.21L31.37-31.21L31.37-31.21Q37.15-29.11 43.90-29.11L43.90-29.11L43.90-27.97L43.90-27.97Q39.85-27.97 37.42-28.35L37.42-28.35L37.42-28.35Q37.37-28.13 37.04-26.57L37.04-26.57L37.04-26.57Q35.05-17.71 33.80-12.47L33.80-12.47L48.28-12.47L53.78-35.91L54.92-35.91L47.36-3.46L47.36-3.46Q46.87-1.46 46.87-0.76L46.87-0.76L46.87-0.76Q46.87 1.51 48.98 1.51L48.98 1.51L48.98 1.51Q50.49 1.51 51.62-0.05L51.62-0.05L52.38 0.59L52.38 0.59Q52.00 1.30 51.03 1.92L51.03 1.92L51.03 1.92Q50.06 2.54 48.68 2.54L48.68 2.54L48.68 2.54Q47.30 2.54 46.52 1.62L46.52 1.62L46.52 1.62Q45.74 0.70 45.74-0.59L45.74-0.59L46.39-4.16L48.06-11.50L33.53-11.50L33.53-11.50Q32.94-9.23 32.35-6.59L32.35-6.59L32.35-6.59Q31.75-3.94 30.91-1.40L30.91-1.40L30.91-1.40Q30.08 1.13 28.62 3.83L28.62 3.83L28.62 3.83Q27.16 6.53 25.35 8.23L25.35 8.23L25.35 8.23Q23.54 9.94 20.82 11.04L20.82 11.04L20.82 11.04Q18.09 12.15 14.93 12.15L14.93 12.15L14.93 12.15Q11.77 12.15 8.96 10.96L8.96 10.96L8.96 10.96Q6.16 9.77 4.27 7.67L4.27 7.67L4.27 7.67Q1.03 3.94 1.03-1.35L1.03-1.35L1.03-1.35Q1.03-2.21 1.08-3.08L1.08-3.08L2.27-2.92L2.27-2.92Q2.21-2.16 2.21-1.40L2.21-1.40L2.21-1.40Q2.21 3.62 5.26 6.99L5.26 6.99L5.26 6.99Q8.32 10.37 13.50 10.37L13.50 10.37L13.50 10.37Q18.68 10.37 20.79 7.61L20.79 7.61L20.79 7.61Q22.90 4.86 24.81-2.97L24.81-2.97L24.81-2.97Q26.73-10.80 31.37-29.86" fill="#42362c" stroke="none" stroke-width="none" transform="translate(-107.40496826171875,12.774462249755857)" style="fill: rgb(66, 54, 44);"></path></g><g class="path" style="transform: matrix(1, 0, 0, 1, 0, 14.925); opacity: 0.05; transform-origin: -41.31px 2.51446px; animation: 1s linear 0.066s 1 normal forwards running float-btt-in-4a1b557c-82a1-41e6-8fa0-36ba02afca8a;"><path d="M68.47-21.01L68.47-21.01L68.47-21.01Q75.33-21.01 75.33-15.55L75.33-15.55L75.33-15.55Q75.33-12.15 72.12-10.39L72.12-10.39L72.12-10.39Q68.90-8.64 62.96-8.59L62.96-8.59L62.96-8.59Q62.86-6.64 62.86-5.51L62.86-5.51L62.86-5.51Q62.86-3.08 63.96-1.92L63.96-1.92L63.96-1.92Q65.07-0.76 66.74-0.76L66.74-0.76L66.74-0.76Q68.42-0.76 69.80-1.40L69.80-1.40L69.80-1.40Q71.17-2.05 71.98-2.94L71.98-2.94L71.98-2.94Q72.79-3.83 73.39-4.81L73.39-4.81L73.39-4.81Q74.47-6.59 74.47-7.07L74.47-7.07L75.44-6.64L75.44-6.64Q75.28-5.78 74.47-4.35L74.47-4.35L74.47-4.35Q73.66-2.92 72.68-2.00L72.68-2.00L72.68-2.00Q71.71-1.08 69.82-0.30L69.82-0.30L69.82-0.30Q67.93 0.49 65.61 0.49L65.61 0.49L65.61 0.49Q61.24 0.49 58.99-1.59L58.99-1.59L58.99-1.59Q56.75-3.67 56.75-7.29L56.75-7.29L56.75-7.29Q56.75-13.72 59.94-17.36L59.94-17.36L59.94-17.36Q63.13-21.01 68.47-21.01zM73.98-15.55L73.98-15.55Q73.98-17.33 72.93-18.50L72.93-18.50L72.93-18.50Q71.87-19.66 69.80-19.66L69.80-19.66L69.80-19.66Q67.72-19.66 65.75-17.17L65.75-17.17L65.75-17.17Q63.77-14.69 63.13-9.83L63.13-9.83L63.13-9.83Q73.98-9.88 73.98-15.55L73.98-15.55" fill="#42362c" stroke="none" stroke-width="none" transform="translate(-107.40496826171875,12.774462249755857)" style="fill: rgb(66, 54, 44);"></path></g><g class="path" style="transform: matrix(1, 0, 0, 1, 0, 14.925); opacity: 0.05; transform-origin: -21.355px -4.47554px; animation: 1s linear 0.132s 1 normal forwards running float-btt-in-4a1b557c-82a1-41e6-8fa0-36ba02afca8a;"><path d="M88.13-1.94L88.13-1.94L88.13-1.94Q87.43-1.03 86.21-0.27L86.21-0.27L86.21-0.27Q85.00 0.49 83.05 0.49L83.05 0.49L83.05 0.49Q81.11 0.49 79.76-0.76L79.76-0.76L79.76-0.76Q78.41-2.00 78.41-4.27L78.41-4.27L78.41-4.27Q78.41-4.70 78.52-5.67L78.52-5.67L82.03-25.11L82.03-25.11Q83.00-30.46 84.70-32.72L84.70-32.72L84.70-32.72Q86.40-34.99 89.21-34.99L89.21-34.99L89.21-34.99Q91.15-34.99 92.42-33.53L92.42-33.53L92.42-33.53Q93.69-32.08 93.69-29.11L93.69-29.11L93.69-29.11Q93.69-26.14 91.40-20.63L91.40-20.63L91.40-20.63Q89.10-15.12 89.10-12.58L89.10-12.58L88.13-12.58L88.13-12.58Q88.13-15.44 90.40-20.76L90.40-20.76L90.40-20.76Q92.66-26.08 92.66-29.27L92.66-29.27L92.66-29.27Q92.66-31.21 91.77-32.62L91.77-32.62L91.77-32.62Q90.88-34.02 89.59-34.02L89.59-34.02L89.59-34.02Q89.53-32.62 87.72-21.41L87.72-21.41L87.72-21.41Q85.91-10.21 84.13-0.59L84.13-0.59L84.13-0.59Q85.64-0.59 86.94-2.16L86.94-2.16L86.94-2.16Q88.24-3.73 88.78-5.29L88.78-5.29L89.37-6.91L90.34-6.48L90.34-6.48Q90.18-5.72 89.50-4.29L89.50-4.29L89.50-4.29Q88.83-2.86 88.13-1.94" fill="#42362c" stroke="none" stroke-width="none" transform="translate(-107.40496826171875,12.774462249755857)" style="fill: rgb(66, 54, 44);"></path></g><g class="path" style="transform: matrix(1, 0, 0, 1, 0, 14.925); opacity: 0.05; transform-origin: -6.34497px -4.47554px; animation: 1s linear 0.198s 1 normal forwards running float-btt-in-4a1b557c-82a1-41e6-8fa0-36ba02afca8a;"><path d="M103.14-1.94L103.14-1.94L103.14-1.94Q102.44-1.03 101.22-0.27L101.22-0.27L101.22-0.27Q100.01 0.49 98.06 0.49L98.06 0.49L98.06 0.49Q96.12 0.49 94.77-0.76L94.77-0.76L94.77-0.76Q93.42-2.00 93.42-4.27L93.42-4.27L93.42-4.27Q93.42-4.70 93.53-5.67L93.53-5.67L97.04-25.11L97.04-25.11Q98.01-30.46 99.71-32.72L99.71-32.72L99.71-32.72Q101.41-34.99 104.22-34.99L104.22-34.99L104.22-34.99Q106.16-34.99 107.43-33.53L107.43-33.53L107.43-33.53Q108.70-32.08 108.70-29.11L108.70-29.11L108.70-29.11Q108.70-26.14 106.41-20.63L106.41-20.63L106.41-20.63Q104.11-15.12 104.11-12.58L104.11-12.58L103.14-12.58L103.14-12.58Q103.14-15.44 105.41-20.76L105.41-20.76L105.41-20.76Q107.68-26.08 107.68-29.27L107.68-29.27L107.68-29.27Q107.68-31.21 106.78-32.62L106.78-32.62L106.78-32.62Q105.89-34.02 104.60-34.02L104.60-34.02L104.60-34.02Q104.54-32.62 102.73-21.41L102.73-21.41L102.73-21.41Q100.93-10.21 99.14-0.59L99.14-0.59L99.14-0.59Q100.66-0.59 101.95-2.16L101.95-2.16L101.95-2.16Q103.25-3.73 103.79-5.29L103.79-5.29L104.38-6.91L105.35-6.48L105.35-6.48Q105.19-5.72 104.52-4.29L104.52-4.29L104.52-4.29Q103.84-2.86 103.14-1.94" fill="#42362c" stroke="none" stroke-width="none" transform="translate(-107.40496826171875,12.774462249755857)" style="fill: rgb(66, 54, 44);"></path></g><g class="path" style="transform: matrix(1, 0, 0, 1, 0, 14.925); opacity: 0.05; transform-origin: 11.45px 2.51446px; animation: 1s linear 0.264s 1 normal forwards running float-btt-in-4a1b557c-82a1-41e6-8fa0-36ba02afca8a;"><path d="M116.75 0.49L116.75 0.49Q112.59 0.49 110.43-1.59L110.43-1.59L110.43-1.59Q108.27-3.67 108.27-6.83L108.27-6.83L108.27-6.83Q108.27-9.99 108.84-12.23L108.84-12.23L108.84-12.23Q109.40-14.47 110.70-16.55L110.70-16.55L110.70-16.55Q112.00-18.63 114.62-19.82L114.62-19.82L114.62-19.82Q117.23-21.01 121.15-21.01L121.15-21.01L121.15-21.01Q125.06-21.01 127.25-18.93L127.25-18.93L127.25-18.93Q129.44-16.85 129.44-13.23L129.44-13.23L129.44-13.23Q129.44-7.07 126.17-3.29L126.17-3.29L126.17-3.29Q122.90 0.49 116.75 0.49L116.75 0.49zM114.37-5.08L114.37-5.08L114.37-5.08Q114.37-0.76 116.88-0.76L116.88-0.76L116.88-0.76Q119.39-0.76 121.37-5.10L121.37-5.10L121.37-5.10Q123.34-9.45 123.34-15.44L123.34-15.44L123.34-15.44Q123.34-19.98 120.88-19.98L120.88-19.98L120.88-19.98Q118.42-19.98 116.40-15.85L116.40-15.85L116.40-15.85Q114.37-11.72 114.37-5.08" fill="#42362c" stroke="none" stroke-width="none" transform="translate(-107.40496826171875,12.774462249755857)" style="fill: rgb(66, 54, 44);"></path></g><g class="path" style="transform: matrix(1, 0, 0, 1, 0, 14.925); opacity: 0.05; transform-origin: 27.865px 12.2045px; animation: 1s linear 0.33s 1 normal forwards running float-btt-in-4a1b557c-82a1-41e6-8fa0-36ba02afca8a;"><path d="M133.33-0.70L133.33-0.70L133.33-0.70Q132.19-1.84 132.19-3.46L132.19-3.46L132.19-3.46Q132.19-5.08 133.33-6.24L133.33-6.24L133.33-6.24Q134.46-7.40 136.08-7.40L136.08-7.40L136.08-7.40Q137.70-7.40 138.86-6.24L138.86-6.24L138.86-6.24Q140.02-5.08 140.02-3.46L140.02-3.46L140.02-3.46Q140.02-0.81 137.67 2.11L137.67 2.11L137.67 2.11Q135.32 5.02 131.00 6.26L131.00 6.26L130.52 5.13L130.52 5.13Q132.95 4.32 134.65 3.10L134.65 3.10L134.65 3.10Q136.35 1.89 136.84 1.08L136.84 1.08L137.32 0.22L137.32 0.22Q136.84 0.43 136.08 0.43L136.08 0.43L136.08 0.43Q134.46 0.43 133.33-0.70" fill="#42362c" stroke="none" stroke-width="none" transform="translate(-107.40496826171875,12.774462249755857)" style="fill: rgb(66, 54, 44);"></path></g><g class="path" style="transform: matrix(1, 0, 0, 1, 0, 14.925); opacity: 0.05; transform-origin: 54.57px 2.51446px; animation: 1s linear 0.396s 1 normal forwards running float-btt-in-4a1b557c-82a1-41e6-8fa0-36ba02afca8a;"><path d="M166.48-1.46L166.48-1.46Q164.86 0.49 162.43 0.49L162.43 0.49L162.43 0.49Q160.00 0.49 158.63-0.76L158.63-0.76L158.63-0.76Q157.25-2.00 157.25-4.00L157.25-4.00L157.25-4.00Q157.25-4.70 158.11-9.88L158.11-9.88L159.89-19.55L157.63-19.55L157.73-20.52L160.06-20.52L160.06-20.52Q164.05-20.52 165.94-20.84L165.94-20.84L166.70-21.01L162.97-0.59L162.97-0.59Q164.59-0.76 165.67-2.11L165.67-2.11L166.48-1.46" fill="#42362c" stroke="none" stroke-width="none" transform="translate(-107.40496826171875,12.774462249755857)" style="fill: rgb(66, 54, 44);"></path></g><g class="path" style="transform: matrix(1, 0, 0, 1, 0, 14.925); opacity: 0.05; transform-origin: 57.11px -16.2005px; animation: 1s linear 0.462s 1 normal forwards running float-btt-in-4a1b557c-82a1-41e6-8fa0-36ba02afca8a;"><path d="M161.73-26.19L161.73-26.19L161.73-26.19Q160.60-27.32 160.60-28.94L160.60-28.94L160.60-28.94Q160.60-30.56 161.73-31.72L161.73-31.72L161.73-31.72Q162.86-32.89 164.48-32.89L164.48-32.89L164.48-32.89Q166.10-32.89 167.27-31.72L167.27-31.72L167.27-31.72Q168.43-30.56 168.43-28.94L168.43-28.94L168.43-28.94Q168.43-27.32 167.27-26.19L167.27-26.19L167.27-26.19Q166.10-25.06 164.48-25.06L164.48-25.06L164.48-25.06Q162.86-25.06 161.73-26.19" fill="#42362c" stroke="none" stroke-width="none" transform="translate(-107.40496826171875,12.774462249755857)" style="fill: rgb(66, 54, 44);"></path></g><g class="path" style="transform: matrix(1, 0, 0, 1, 0, 14.925); opacity: 0.05; transform-origin: 68.335px -14.7905px; animation: 1s linear 0.528s 1 normal forwards running float-btt-in-4a1b557c-82a1-41e6-8fa0-36ba02afca8a;"><path d="M176.85-35.91L176.85-35.91L179.17-35.91L179.17-35.91Q179.17-32.99 176.88-27.35L176.88-27.35L176.88-27.35Q174.58-21.71 174.58-19.22L174.58-19.22L172.31-19.22L172.31-19.22Q172.42-22.19 174.64-27.41L174.64-27.41L174.64-27.41Q176.85-32.62 176.85-35.91" fill="#42362c" stroke="none" stroke-width="none" transform="translate(-107.40496826171875,12.774462249755857)" style="fill: rgb(66, 54, 44);"></path></g><g class="path" style="transform: matrix(1, 0, 0, 1, 0, 14.925); opacity: 0.05; transform-origin: 89.75px 2.51446px; animation: 1s linear 0.594s 1 normal forwards running float-btt-in-4a1b557c-82a1-41e6-8fa0-36ba02afca8a;"><path d="M198.72-0.59L198.72-0.59L198.72-0.59Q200.02-0.59 201.42-2.11L201.42-2.11L202.23-1.46L202.23-1.46Q201.85-0.70 200.56-0.11L200.56-0.11L200.56-0.11Q199.26 0.49 197.69 0.49L197.69 0.49L197.69 0.49Q192.78 0.49 192.78-3.94L192.78-3.94L192.78-3.94Q192.78-5.83 193.75-10.69L193.75-10.69L193.75-10.69Q194.72-15.55 194.72-17.06L194.72-17.06L194.72-17.06Q194.72-19.39 192.51-19.39L192.51-19.39L192.51-19.39Q189.16-19.39 186.89-10.80L186.89-10.80L184.95 0L178.47 0L182.03-19.93L182.03-19.93Q180.41-19.76 179.33-18.41L179.33-18.41L178.52-19.06L178.52-19.06Q180.14-21.01 182.60-21.01L182.60-21.01L182.60-21.01Q185.06-21.01 186.41-19.76L186.41-19.76L186.41-19.76Q187.76-18.52 187.76-16.25L187.76-16.25L187.76-16.09L187.76-16.09Q189.86-21.01 194.13-21.01L194.13-21.01L194.13-21.01Q197.15-21.01 198.91-19.36L198.91-19.36L198.91-19.36Q200.66-17.71 200.83-14.74L200.83-14.74L200.83-14.74Q201.85-17.71 203.42-19.36L203.42-19.36L203.42-19.36Q204.98-21.01 207.95-21.01L207.95-21.01L207.95-21.01Q210.92-21.01 212.71-19.20L212.71-19.20L212.71-19.20Q214.49-17.39 214.49-14.20L214.49-14.20L214.49-14.20Q214.49-12.53 213.46-7.75L213.46-7.75L213.46-7.75Q212.44-2.97 212.33-0.59L212.33-0.59L212.33-0.59Q213.62-0.59 215.03-2.11L215.03-2.11L215.84-1.46L215.84-1.46Q215.46-0.70 214.16-0.11L214.16-0.11L214.16-0.11Q212.87 0.49 211.30 0.49L211.30 0.49L211.30 0.49Q206.39 0.49 206.39-3.94L206.39-3.94L206.39-3.94Q206.39-5.83 207.36-10.69L207.36-10.69L207.36-10.69Q208.33-15.55 208.33-17.06L208.33-17.06L208.33-17.06Q208.33-19.39 206.12-19.39L206.12-19.39L206.12-19.39Q202.23-19.39 199.85-7.83L199.85-7.83L199.85-7.83Q198.83-2.92 198.72-0.59" fill="#42362c" stroke="none" stroke-width="none" transform="translate(-107.40496826171875,12.774462249755857)" style="fill: rgb(66, 54, 44);"></path></g></g>
</g>
</g>
<style id="float-btt-in-4a1b557c-82a1-41e6-8fa0-36ba02afca8a" data-anikit="">@keyframes float-btt-in-4a1b557c-82a1-41e6-8fa0-36ba02afca8a
{
  0% {
    animation-timing-function: cubic-bezier(0.2242,0.7499,0.3142,0.8148);
    transform: translate(0px,14.925px) rotate(0deg) scale(1,1) skewX(0deg) skewY(0deg);
    opacity: 0.05;
  }
  100% {
    transform: translate(0px,0px) rotate(0deg) scale(1,1) skewX(0deg) skewY(0deg);
    opacity: 1;
  }
}</style></svg>